<svg id="visual" viewBox="0 0 900 600" width="900" height="600" xmlns="http://www.w3.org/2000/svg" xmlns:xlink="http://www.w3.org/1999/xlink" version="1.1"><rect x="0" y="0" width="900" height="600" fill="#FFA500"></rect><path d="M0 490L30 476.3C60 462.7 120 435.3 180 448.2C240 461 300 514 360 509.5C420 505 480 443 540 436.3C600 429.7 660 478.3 720 484.5C780 490.7 840 454.3 870 436.2L900 418L900 601L870 601C840 601 780 601 720 601C660 601 600 601 540 601C480 601 420 601 360 601C300 601 240 601 180 601C120 601 60 601 30 601L0 601Z" fill="#FFF" stroke-linecap="round" stroke-linejoin="miter"></path></svg>