<svg id="visual" viewBox="0 0 900 600" width="900" height="600" xmlns="http://www.w3.org/2000/svg" xmlns:xlink="http://www.w3.org/1999/xlink" version="1.1"><rect x="0" y="0" width="900" height="600" fill="#FFF"></rect><path d="M0 391L21.5 391C43 391 86 391 128.8 410.3C171.7 429.7 214.3 468.3 257.2 479.7C300 491 343 475 385.8 462C428.7 449 471.3 439 514.2 446.3C557 453.7 600 478.3 642.8 493.8C685.7 509.3 728.3 515.7 771.2 497.3C814 479 857 436 878.5 414.5L900 393L900 601L878.5 601C857 601 814 601 771.2 601C728.3 601 685.7 601 642.8 601C600 601 557 601 514.2 601C471.3 601 428.7 601 385.8 601C343 601 300 601 257.2 601C214.3 601 171.7 601 128.8 601C86 601 43 601 21.5 601L0 601Z" fill="#FFA500" stroke-linecap="round" stroke-linejoin="miter"></path></svg>